# xmcd CD database file
#
# Track frame offsets:
#	182
#	18080
#	31142
#	52977
#	77990
#	96407
#	116670
#	130195
#	144107
#	159270
#	182387
#	201077
#	215450
#
# Disc length: 3080 seconds
#
# Revision: 6
# Processed by: cddbd v1.5.2PL0 Copyright (c) Steve Scherf et al.
# Submitted via: CDex 1.79
#
DISCID=a00c060d
DTITLE=Kim Richey - Kim Richey
DYEAR=1995
DGENRE=Country
TTITLE0=Those Words We Said
TTITLE1=Here I Go Again
TTITLE2=You`ll Never Know
TTITLE3=That`s Exactly What I Mean
TTITLE4=Let The Sun Fall Down
TTITLE5=Just Like The Moon
TTITLE6=From Where I Stand
TTITLE7=Sweet Mysteries
TTITLE8=Just My Luck
TTITLE9=Can`t Find The Words
TTITLE10=That`s A Lie
TTITLE11=Echoes Of Love
TTITLE12=Good
EXTD=YEAR: 1995
EXTT0=
EXTT1=
EXTT2=
EXTT3=
EXTT4=
EXTT5=
EXTT6=
EXTT7=
EXTT8=
EXTT9=
EXTT10=
EXTT11=
EXTT12=
PLAYORDER=
